<?xml version="1.0" encoding="utf-8"?>
<!-- Generator: Adobe Illustrator 16.0.3, SVG Export Plug-In . SVG Version: 6.00 Build 0)  -->
<!DOCTYPE svg PUBLIC "-//W3C//DTD SVG 1.1//EN" "http://www.w3.org/Graphics/SVG/1.1/DTD/svg11.dtd">
<svg version="1.1" id="Layer_1" xmlns="http://www.w3.org/2000/svg" xmlns:xlink="http://www.w3.org/1999/xlink" x="0px" y="0px"
	 width="373px" height="136px" viewBox="0 0 373 136" enable-background="new 0 0 373 136" xml:space="preserve">
<path d="M102.032,46.211l9.487-39.75h10.017l9.01,39.75h-7.95l-1.96-10.07h-8.691l-1.962,10.07H102.032z M113.11,30.311h6.361
	l-2.016-11.289c-0.372-1.854-0.53-3.655-0.743-5.512c-0.052-0.901-0.158-1.801-0.264-2.649h-0.106
	c-0.108,0.849-0.212,1.749-0.268,2.649c-0.208,1.856-0.369,3.657-0.739,5.512L113.11,30.311z"/>
<path d="M134.467,46.211V6.461h11.979c3.181,0,6.308,0.213,8.427,2.916c1.697,2.172,1.96,4.451,1.96,7.153
	c0,3.445-0.741,6.837-4.771,8.321v0.106c4.188,0.584,5.779,4.08,5.779,9.222c0,1.643-0.106,3.286-0.531,4.875
	c-1.589,5.036-4.454,7.156-9.752,7.156H134.467z M143.955,22.52c1.697,0,3.604-0.105,4.611-1.377
	c0.69-1.007,0.796-2.384,0.796-4.292c0-2.969-0.638-4.453-4.027-4.558h-3.447V22.52H143.955z M145.123,40.38
	c1.007,0,1.96-0.053,2.808-0.424c2.013-0.901,2.279-3.497,2.279-5.511c0-4.293-0.847-6.094-5.46-6.094h-2.861V40.38H145.123z"/>
<path d="M163.885,46.211V6.461h20.882v5.831h-13.463v10.016h12.403v5.829h-12.403V40.38h13.463v5.831H163.885z"/>
<path d="M197.911,29.092v17.119h-7.421V6.461h14.045c6.414,0,11.29,2.226,11.29,9.54c0,4.346-1.115,8.903-6.095,9.593v0.106
	c4.397,0.583,5.722,3.392,5.722,7.208v1.695c0,3.34,0.108,9.911,1.59,10.865v0.742h-8.162c-0.741-2.067-0.795-5.67-0.795-8.321
	v-1.749c-0.054-2.438,0-5.776-2.544-6.519c-1.693-0.477-3.5-0.53-5.299-0.53h-1.009H197.911z M197.911,23.262h5.83
	c2.437-0.16,4.345-1.749,4.345-5.724c0-4.451-1.854-5.194-4.664-5.246h-5.511V23.262z"/>
<path d="M219.324,6.461h24.751v5.831h-8.64v33.918h-7.419V12.292h-8.692V6.461z"/>
<path d="M266.335,6.461h7.421V34.18c0,8.798-2.863,12.984-12.562,12.984c-9.805,0-12.666-4.187-12.666-12.984V6.461h7.419v27.083
	c0,3.816,0.266,7.632,5.299,7.632c4.823,0,5.088-3.816,5.088-7.632V6.461z"/>
<path d="M288.224,29.092v17.119h-7.42V6.461h14.045c6.412,0,11.29,2.226,11.29,9.54c0,4.346-1.115,8.903-6.095,9.593v0.106
	c4.396,0.583,5.722,3.392,5.722,7.208v1.695c0,3.34,0.106,9.911,1.591,10.865v0.742h-8.163c-0.743-2.067-0.794-5.67-0.794-8.321
	v-1.749c-0.053-2.438,0-5.776-2.544-6.519c-1.695-0.477-3.499-0.53-5.3-0.53h-1.006H288.224z M288.224,23.262h5.831
	c2.438-0.16,4.345-1.749,4.345-5.724c0-4.451-1.854-5.194-4.664-5.246h-5.512V23.262z"/>
<path d="M310.167,46.211l9.488-39.75h10.016l9.01,39.75h-7.95l-1.961-10.07h-8.692l-1.96,10.07H310.167z M321.244,30.311h6.359
	l-2.014-11.289c-0.37-1.854-0.529-3.655-0.743-5.512c-0.054-0.901-0.16-1.801-0.264-2.649h-0.106
	c-0.106,0.849-0.21,1.749-0.264,2.649c-0.214,1.856-0.373,3.657-0.741,5.512L321.244,30.311z"/>
<path d="M357.92,18.545v-0.583c0-3.339-0.477-6.466-4.345-6.466c-2.491,0-4.082,1.007-4.082,3.709c0,3.022,1.909,4.188,4.241,5.671
	c2.437,1.538,6.941,4.506,9.009,6.52c2.543,2.491,3.338,4.875,3.338,8.321c0,7.525-4.98,11.447-12.242,11.447
	c-8.903,0-12.083-4.982-12.083-12.084v-2.914h7.418v3.021c0,3.497,1.22,5.989,4.664,5.989c3.126,0,4.611-1.643,4.611-4.664
	c0-2.332-1.059-3.921-2.968-5.248c-3.867-3.021-8.691-5.193-11.713-9.168c-1.219-1.802-1.909-3.974-1.909-6.094
	c0-6.784,3.818-10.493,11.66-10.493c11.819,0,11.503,9.115,11.554,13.037H357.92z"/>
<path stroke="#000000" stroke-width="3.6236" stroke-miterlimit="10" d="M115.712,127.157H103.32V60.785h19.735l6.638,30.796
	c1.061,5.045,1.772,10.178,2.301,15.309h0.178c0.618-6.547,1.06-10.973,1.946-15.309l6.637-30.796h19.645v66.372h-12.387v-20.886
	c0-13.187,0.264-26.372,1.06-39.558h-0.177l-13.273,60.444H128.1l-13.008-60.444h-0.442c0.796,13.186,1.063,26.371,1.063,39.558
	V127.157z"/>
<path stroke="#000000" stroke-width="3.6236" stroke-miterlimit="10" d="M167.038,127.157l15.841-66.372h16.726l15.046,66.372
	h-13.275l-3.273-16.814h-14.516l-3.271,16.814H167.038z M185.535,100.608h10.62l-3.363-18.851c-0.619-3.096-0.887-6.105-1.239-9.203
	c-0.088-1.504-0.267-3.009-0.442-4.425h-0.177c-0.178,1.416-0.355,2.92-0.442,4.425c-0.355,3.098-0.621,6.107-1.24,9.203
	L185.535,100.608z"/>
<path stroke="#000000" stroke-width="3.6236" stroke-miterlimit="10" d="M233.677,98.572v28.585h-12.391V60.785h23.451
	c10.708,0,18.851,3.717,18.851,15.929c0,7.257-1.857,14.867-10.177,16.017v0.177c7.346,0.974,9.56,5.664,9.56,12.035v2.832
	c0,5.577,0.175,16.55,2.653,18.142v1.24h-13.629c-1.238-3.451-1.329-9.469-1.329-13.895v-2.92c-0.089-4.072,0-9.646-4.245-10.886
	c-2.834-0.795-5.842-0.885-8.85-0.885h-1.685H233.677z M233.677,88.837h9.735c4.07-0.265,7.255-2.92,7.255-9.558
	c0-7.434-3.097-8.672-7.787-8.761h-9.203V88.837z"/>
<path stroke="#000000" stroke-width="3.6236" stroke-miterlimit="10" d="M314.826,103.529c-0.088,1.239-0.176,2.565-0.265,3.804
	c-0.62,12.125-4.691,21.417-18.495,21.417c-20.354,0-21.682-12.92-21.682-30.62v-9.47c0.531-16.902,1.857-29.469,21.682-29.469
	c11.062,0.177,17.256,5.841,18.141,17.168c0.177,1.416,0.266,2.745,0.266,4.16v0.884h-12.212
	c-0.531-4.248-0.089-12.212-6.194-12.212c-8.408,0-8.939,8.583-8.939,14.248v20.885c0,5.487,0.442,14.424,8.939,14.424
	c6.813,0,6.015-10.974,6.283-15.22H314.826z"/>
<path stroke="#000000" stroke-width="3.6236" stroke-miterlimit="10" d="M324.118,88.66c0.531-16.902,1.857-29.469,21.681-29.469
	c19.823,0,21.153,12.567,21.682,29.469v9.47c0,17.7-1.327,30.62-21.682,30.62c-20.353,0-21.681-12.92-21.681-30.62V88.66z
	 M336.86,104.324c0,5.487,0.444,14.424,8.938,14.424c8.85,0,8.939-9.114,8.939-15.486V85.386c0-5.664-0.266-16.194-8.939-16.194
	c-8.406,0-8.938,8.583-8.938,14.248v2.478V104.324z"/>
<path fill-rule="evenodd" clip-rule="evenodd" fill="#FA0F0C" d="M92.086,128.75c-23.166,0-46.33,0-69.493,0
	c-0.481-0.044-0.958-0.123-1.438-0.125c-4.804-0.021-9.604-0.031-14.408-0.045c-0.461-0.001-0.922,0-1.453,0
	c0-0.703,0-1.184,0-1.667c0-40.233-0.002-80.468,0.004-120.702c0-0.479,0.067-0.959,0.101-1.439c28.897,0,57.793,0,86.688,0
	c0.036,0.48,0.101,0.958,0.101,1.438c0.004,40.367,0.004,80.735,0,121.101C92.187,127.791,92.122,128.27,92.086,128.75z
	 M13.504,120.463c23.573,0,46.998,0,70.452,0c0-4.884,0-9.696,0-14.52c-0.955,0-1.813,0-2.776,0c0,4.003,0,7.901,0,11.836
	c-21.669,0-43.236,0-64.824,0c0-34.056,0-68.043,0-102.021c21.655,0,43.222,0,64.895,0c0,3.979,0,7.876,0,11.823
	c0.97,0,1.831,0,2.704,0c0-4.905,0-9.721,0-14.546c-23.525,0-46.955,0-70.45,0C13.504,48.836,13.504,84.567,13.504,120.463z
	 M83.954,93.091c0-17.625,0-35.142,0-52.618c-0.961,0-1.822,0-2.665,0c0,17.59,0,35.076,0,52.618
	C82.197,93.091,83.031,93.091,83.954,93.091z M29.66,66.755c-0.002-2.381-1.941-4.326-4.29-4.3
	c-2.358,0.028-4.267,1.993-4.239,4.363c0.027,2.312,1.931,4.212,4.241,4.236C27.724,71.08,29.662,69.136,29.66,66.755z"/>
</svg>
